<?xml version="1.0" encoding="UTF-8"?>
<svg version="1.1" xmlns="http://www.w3.org/2000/svg" width="257" height="9">
<path d="M0 0 C0.99 0 1.98 0 3 0 C7 0 11 0 15 0 C16.80498252 -0.01701209 18.60996503 -0.0340247 20.41494751 -0.05104065 C43.11026053 -0.24584689 65.75556041 0.12681318 88.4375 0.9375 C89.66340851 0.98106628 90.88931702 1.02463257 92.15237427 1.06951904 C106.77455207 1.59601397 121.38903537 2.22185172 136 3 C136 3.99 136 4.98 136 6 C131.9874854 6.73524046 128.11351368 7.16288745 124.0378418 7.29711914 C122.8734256 7.33707504 121.7090094 7.37703094 120.50930786 7.41819763 C118.62331375 7.47609215 118.62331375 7.47609215 116.69921875 7.53515625 C115.36049859 7.57848746 114.0217841 7.62199437 112.68307495 7.66566467 C109.09405673 7.78100416 105.50486867 7.88973689 101.91557693 7.99619293 C99.68830111 8.06247616 97.4610774 8.13033329 95.2338562 8.19842529 C68.48411705 9.00959517 41.76212307 9.22403735 15 9 C14.01 9 13.02 9 12 9 C8 9 4 9 0 9 C-1.87667358 9.01571045 -1.87667358 9.01571045 -3.79125977 9.03173828 C-30.03370852 9.24876974 -56.23420071 8.93215776 -82.46308517 8.13027191 C-84.68573596 8.06255375 -86.90842938 7.99640492 -89.13113403 7.93048096 C-92.65939766 7.82508655 -96.18745923 7.71445346 -99.71541977 7.59936714 C-101.64664836 7.53685783 -103.57797764 7.47748383 -105.50930786 7.41819763 C-106.67372406 7.37824173 -107.83814026 7.33828583 -109.0378418 7.29711914 C-110.049207 7.26380997 -111.0605722 7.23050079 -112.10258484 7.19618225 C-115.11932128 6.99192083 -118.02742021 6.5446861 -121 6 C-121 5.01 -121 4.02 -121 3 C-106.27677882 2.35397248 -91.55290467 1.72517401 -76.82806396 1.11712646 C-74.36009918 1.01491379 -71.89220107 0.9112529 -69.42431641 0.80712891 C-46.28222964 -0.14887096 -23.1570303 -0.09681033 0 0 Z M-34 5 C-34 5.33 -34 5.66 -34 6 C-23.77 6 -13.54 6 -3 6 C-3 5.67 -3 5.34 -3 5 C-13.23 5 -23.46 5 -34 5 Z M5 5 C6.485 5.99 6.485 5.99 8 7 C8.66 6.34 9.32 5.68 10 5 C8.35 5 6.7 5 5 5 Z M18 5 C18 5.33 18 5.66 18 6 C28.23 6 38.46 6 49 6 C49 5.67 49 5.34 49 5 C38.77 5 28.54 5 18 5 Z " fill="#BF0000" transform="translate(121,0)"/>
</svg>
